<?xml version="1.0" encoding="UTF-8"?>
<svg version="1.1" xmlns="http://www.w3.org/2000/svg" width="1024" height="1024">
<path d="M0 0 C337.92 0 675.84 0 1024 0 C1024 337.92 1024 675.84 1024 1024 C686.08 1024 348.16 1024 0 1024 C0 686.08 0 348.16 0 0 Z " fill="#FEFEFF" transform="translate(0,0)"/>
<path d="M0 0 C1.0592569 -0.00599213 2.11851379 -0.01198425 3.20986938 -0.01815796 C18.27164285 -0.0749783 32.80560809 1.16872443 47.6875 3.4375 C48.94908936 3.61579346 50.21067871 3.79408691 51.51049805 3.9777832 C65.47289218 5.95652844 79.10560864 8.64778583 92.6875 12.4375 C93.46802734 12.65100098 94.24855469 12.86450195 95.05273438 13.08447266 C139.88791266 25.4575773 181.12883368 45.75785659 217.6875 74.4375 C218.23148438 74.86289063 218.77546875 75.28828125 219.3359375 75.7265625 C234.28116082 87.54890333 248.28749234 101.36717314 259.49316406 116.79882812 C260.68983421 118.44070262 261.91608707 120.05666788 263.1484375 121.671875 C275.27578304 137.80660049 284.38091723 155.67618278 291.6875 174.4375 C291.94611816 175.0881543 292.20473633 175.73880859 292.47119141 176.40917969 C315.04510894 234.13458212 302.65316581 301.95148704 278.87890625 357.09375 C276.27664155 362.93860316 273.52635889 368.70426211 270.6875 374.4375 C270.06343262 375.70424561 270.06343262 375.70424561 269.42675781 376.99658203 C257.72753738 400.52027229 242.93901379 421.68003237 225.6875 441.4375 C225.00945313 442.22769531 224.33140625 443.01789063 223.6328125 443.83203125 C212.70307044 456.31405185 200.88016288 468.35750929 187.6875 478.4375 C186.49716707 479.4004545 185.30849047 480.3654585 184.12109375 481.33203125 C156.75555968 503.30354378 124.07603672 519.47668939 90.17578125 528.50634766 C87.91120169 529.11084839 85.65087531 529.73160246 83.39599609 530.37133789 C74.35554146 532.89491587 65.31531346 534.73849335 56.05395508 536.24780273 C53.75329381 536.62446075 51.45585375 537.01754848 49.15820312 537.41210938 C39.34175303 539.05937559 29.63127892 540.02144585 19.6875 540.4375 C19.75710938 542.17193359 19.75710938 542.17193359 19.828125 543.94140625 C20.70466959 576.74633942 13.67687986 610.73692215 5.69482422 642.39892578 C4.44517222 647.38240095 3.24274276 652.37729421 2.03515625 657.37109375 C1.30777955 660.37263258 0.58001799 663.37407782 -0.14788818 666.37548828 C-0.62474395 668.34263339 -1.1010411 670.30991402 -1.57672119 672.27734375 C-3.86216182 681.71776147 -6.18286131 691.1330872 -8.83984375 700.4765625 C-11.6868554 710.52802077 -14.04237823 720.67956482 -16.3125 730.875 C-16.52938477 731.84606689 -16.74626953 732.81713379 -16.96972656 733.81762695 C-22.08738988 756.88668146 -25.61222268 780.00462899 -27.65307617 803.54956055 C-29.2972761 822.13608543 -32.4324619 845.49133135 -46.46875 858.96484375 C-53.05805829 864.22791414 -59.29646829 864.39902403 -67.41064453 863.70849609 C-79.95747937 861.92069293 -91.43471655 846.24837908 -98.625 836.6875 C-99.42100842 835.61751135 -100.21659071 834.54720554 -101.01171875 833.4765625 C-104.50437808 828.86316868 -108.29764673 824.60023 -112.3125 820.4375 C-112.89902344 819.82519531 -113.48554687 819.21289062 -114.08984375 818.58203125 C-135.07123131 798.51886634 -165.71945616 793.85572915 -193.4609375 794.15234375 C-204.56098541 794.46691361 -215.4091706 796.46047607 -226.3125 798.4375 C-228.29278205 798.78881444 -230.27324656 799.13910219 -232.25390625 799.48828125 C-233.09123291 799.63692627 -233.92855957 799.78557129 -234.79125977 799.9387207 C-236.37958618 800.21655396 -236.37958618 800.21655396 -238 800.5 C-239.2366465 800.71703079 -239.2366465 800.71703079 -240.49827576 800.93844604 C-258.77128218 804.11251471 -276.62944663 805.99317715 -295.1875 805.875 C-296.196987 805.87229095 -297.206474 805.86958191 -298.24655151 805.86679077 C-323.27159659 805.76575745 -347.55656321 803.32802347 -371.84765625 797.06103516 C-374.29701772 796.44141658 -376.75334112 795.8761833 -379.21875 795.32421875 C-417.39016488 786.62019271 -454.35055621 768.68329523 -484.3125 743.4375 C-485.16932373 742.72279541 -485.16932373 742.72279541 -486.04345703 741.99365234 C-508.33188851 723.36369103 -508.33188851 723.36369103 -516.59765625 713.4609375 C-518.63124837 711.06139145 -520.78513092 708.79356449 -522.9375 706.5 C-538.98774498 688.82287694 -552.1682676 668.50610397 -563.3125 647.4375 C-563.73740723 646.64214844 -564.16231445 645.84679687 -564.60009766 645.02734375 C-572.42278928 630.27710837 -578.63631764 615.12725096 -584.3125 599.4375 C-584.61526855 598.61830078 -584.91803711 597.79910156 -585.22998047 596.95507812 C-604.68750183 544.07464883 -608.25622751 480.11654421 -584.53515625 428.0859375 C-583.80079175 426.53335718 -583.05961688 424.98398416 -582.3125 423.4375 C-581.89983887 422.58317383 -581.48717773 421.72884766 -581.06201172 420.84863281 C-575.09602079 408.67756858 -568.41554733 397.30314665 -560.3125 386.4375 C-559.86406738 385.83357422 -559.41563477 385.22964844 -558.95361328 384.60742188 C-552.28533832 375.70358192 -545.01447221 367.45599162 -537.3125 359.4375 C-536.4565625 358.5403125 -535.600625 357.643125 -534.71875 356.71875 C-528.94870472 350.80262763 -522.8217653 345.51836982 -516.3125 340.4375 C-515.37011475 339.6964502 -515.37011475 339.6964502 -514.40869141 338.94042969 C-476.42544174 309.14502305 -433.14804806 288.12495002 -386.3125 276.4375 C-385.5277832 276.23721191 -384.74306641 276.03692383 -383.93457031 275.83056641 C-379.08105752 274.59733195 -374.21159218 273.47438015 -369.3125 272.4375 C-368.53052246 272.2715332 -367.74854492 272.10556641 -366.94287109 271.93457031 C-356.51587684 269.75811136 -346.06689433 268.03178744 -335.5 266.6875 C-334.50411865 266.55980225 -333.5082373 266.43210449 -332.48217773 266.30053711 C-327.04759544 265.64421778 -321.78590512 265.30795195 -316.3125 265.4375 C-316.37050781 264.53515625 -316.42851562 263.6328125 -316.48828125 262.703125 C-318.96166978 204.30241301 -285.75310954 146.26926454 -247.7109375 104.4609375 C-236.15680248 91.89648327 -223.90519024 80.7560872 -210.3125 70.4375 C-209.60206543 69.8919043 -208.89163086 69.34630859 -208.15966797 68.78417969 C-196.36509759 59.74754368 -184.20929379 51.80493232 -171.3125 44.4375 C-170.51263672 43.9724707 -169.71277344 43.50744141 -168.88867188 43.02832031 C-155.16927395 35.06527416 -140.96947855 28.48809397 -126.3125 22.4375 C-125.48959473 22.09734863 -124.66668945 21.75719727 -123.81884766 21.40673828 C-113.63628918 17.27014147 -103.20423155 14.14640844 -92.625 11.1875 C-90.8620459 10.69310425 -90.8620459 10.69310425 -89.06347656 10.1887207 C-59.94439889 2.27751174 -30.06262163 0.05600617 0 0 Z " fill="#007DFF" transform="translate(660.3125,88.5625)"/>
<path d="M0 0 C1.0592569 -0.00599213 2.11851379 -0.01198425 3.20986938 -0.01815796 C18.27164285 -0.0749783 32.80560809 1.16872443 47.6875 3.4375 C49.57988403 3.70494019 49.57988403 3.70494019 51.51049805 3.9777832 C65.47289218 5.95652844 79.10560864 8.64778583 92.6875 12.4375 C93.46802734 12.65100098 94.24855469 12.86450195 95.05273438 13.08447266 C139.88791266 25.4575773 181.12883368 45.75785659 217.6875 74.4375 C218.23148438 74.86289063 218.77546875 75.28828125 219.3359375 75.7265625 C234.28116082 87.54890333 248.28749234 101.36717314 259.49316406 116.79882812 C260.68983421 118.44070262 261.91608707 120.05666788 263.1484375 121.671875 C275.27578304 137.80660049 284.38091723 155.67618278 291.6875 174.4375 C291.94611816 175.0881543 292.20473633 175.73880859 292.47119141 176.40917969 C315.04510894 234.13458212 302.65316581 301.95148704 278.87890625 357.09375 C276.27664155 362.93860316 273.52635889 368.70426211 270.6875 374.4375 C270.06343262 375.70424561 270.06343262 375.70424561 269.42675781 376.99658203 C257.72753738 400.52027229 242.93901379 421.68003237 225.6875 441.4375 C225.00945313 442.22769531 224.33140625 443.01789063 223.6328125 443.83203125 C212.70307044 456.31405185 200.88016288 468.35750929 187.6875 478.4375 C186.49716707 479.4004545 185.30849047 480.3654585 184.12109375 481.33203125 C156.75555968 503.30354378 124.07603672 519.47668939 90.17578125 528.50634766 C87.91120169 529.11084839 85.65087531 529.73160246 83.39599609 530.37133789 C74.35554146 532.89491587 65.31531346 534.73849335 56.05395508 536.24780273 C53.75329381 536.62446075 51.45585375 537.01754848 49.15820312 537.41210938 C39.34175303 539.05937559 29.63127892 540.02144585 19.6875 540.4375 C19.64262451 539.68879639 19.59774902 538.94009277 19.55151367 538.16870117 C15.9202575 479.11443679 -1.64392969 424.61957196 -41.3125 379.4375 C-42.06789063 378.57253906 -42.82328125 377.70757812 -43.6015625 376.81640625 C-56.13223398 362.83093545 -69.22672372 348.87767464 -84.44873047 337.80517578 C-86.55205533 336.26170894 -88.62111339 334.6773216 -90.69140625 333.08984375 C-101.76396272 324.6693897 -113.23947808 317.3313227 -125.3125 310.4375 C-126.52824707 309.73197998 -126.52824707 309.73197998 -127.76855469 309.01220703 C-145.79361689 298.57266181 -164.73975262 290.49175106 -184.3125 283.4375 C-185.23289062 283.08300781 -186.15328125 282.72851562 -187.1015625 282.36328125 C-228.37621039 266.58913334 -272.69089938 264.80275542 -316.3125 265.4375 C-316.54566507 255.01258787 -316.22936807 245.15837094 -314.25 234.875 C-313.91609253 233.08835937 -313.91609253 233.08835937 -313.57543945 231.265625 C-300.97840465 166.60113268 -262.45790906 110.02252261 -210.3125 70.4375 C-209.60206543 69.8919043 -208.89163086 69.34630859 -208.15966797 68.78417969 C-196.36509759 59.74754368 -184.20929379 51.80493232 -171.3125 44.4375 C-170.51263672 43.9724707 -169.71277344 43.50744141 -168.88867188 43.02832031 C-155.16927395 35.06527416 -140.96947855 28.48809397 -126.3125 22.4375 C-125.48959473 22.09734863 -124.66668945 21.75719727 -123.81884766 21.40673828 C-113.63628918 17.27014147 -103.20423155 14.14640844 -92.625 11.1875 C-91.44969727 10.85790283 -90.27439453 10.52830566 -89.06347656 10.1887207 C-59.94439889 2.27751174 -30.06262163 0.05600617 0 0 Z " fill="#9560FF" transform="translate(660.3125,88.5625)"/>
<path d="M0 0 C8.72394557 5.35121776 15.82476734 13.30372341 19.34375 22.99609375 C21.37917881 32.3130268 21.36615028 43.38303172 17 52 C16.58621094 52.82886719 16.17242188 53.65773438 15.74609375 54.51171875 C10.20712012 64.60864887 2.08393303 70.92003988 -8.8203125 74.6171875 C-20.19831641 76.61547492 -31.85140156 75.4223168 -41.6875 69.25 C-51.25872574 62.36276878 -57.55302193 54.17195713 -59.71875 42.34375 C-61.16791867 30.26734442 -58.89799544 20.70700578 -52.06640625 10.609375 C-39.04042918 -5.83930682 -18.32360111 -9.51093619 0 0 Z " fill="#FEFDFF" transform="translate(679,325)"/>
<path d="M0 0 C8.33720564 6.37789475 13.83805545 14.67250084 16.625 24.8125 C18.11236859 38.05937654 14.90340437 49.18813814 7.375 60.0625 C-1.57749096 69.01499096 -11.94306628 73.16872812 -24.5 73.3125 C-31.26000821 73.23484657 -36.58910281 72.53367178 -42.375 68.8125 C-43.1175 68.41160156 -43.86 68.01070313 -44.625 67.59765625 C-53.91498169 62.18373111 -59.77715995 53.27382518 -62.75 43.0546875 C-65.17407015 30.47982358 -63.18794577 20.7555787 -56.5625 10.0625 C-43.33153407 -8.72547162 -19.08134992 -12.43178858 0 0 Z " fill="#FEFDFF" transform="translate(824.375,327.1875)"/>
<path d="M0 0 C8.56042831 6.20747152 14.23387641 14.3728895 16.796875 24.70703125 C18.65768139 36.82088086 16.44004348 47.60930679 9.3125 57.6875 C2.79274638 65.58771165 -4.9594289 70.47697999 -14.8125 73.25 C-28.02635612 74.51289369 -39.40770809 72.66682105 -50.00390625 64.03125 C-58.7782129 55.38960025 -63.15166241 45.00996164 -63.375 32.8125 C-63.23989719 21.23699326 -59.27193792 12.76403944 -51.203125 4.44140625 C-36.36804045 -9.15742126 -17.26179391 -10.67198745 0 0 Z " fill="#FDFEFF" transform="translate(245.8125,591.75)"/>
<path d="M0 0 C8.95162512 6.49114226 14.49267296 14.94920661 17 25.75 C17.061875 26.905 17.12375 28.06 17.1875 29.25 C17.26097656 30.04664063 17.33445312 30.84328125 17.41015625 31.6640625 C17.98735193 41.93518562 14.31322553 51.62794738 7.78125 59.54296875 C0.6272286 67.20548677 -8.07553618 72.60612519 -18.6953125 73.62109375 C-30.74814423 73.97338335 -39.73903362 72.01645513 -49.1875 64 C-58.6044207 54.85515727 -63.01989398 45.5453671 -63.3125 32.375 C-63.2332548 20.89519179 -59.12065173 12.60799425 -51.203125 4.44140625 C-36.36804045 -9.15742126 -17.26179391 -10.67198745 0 0 Z " fill="#FDFEFF" transform="translate(521.8125,591.75)"/>
<path d="M0 0 C0.86625 0.70125 1.7325 1.4025 2.625 2.125 C3.18445313 2.53234375 3.74390625 2.9396875 4.3203125 3.359375 C12.20687012 9.43646269 16.8297374 18.42167982 18.625 28.125 C19.95660002 39.13946934 16.87805629 50.20480415 10.3046875 59.1328125 C3.31998046 67.41699991 -5.57111081 72.46546843 -16.375 74.125 C-29.22432961 75.07007092 -39.22153613 72.1688503 -49.375 64.125 C-58.33546645 55.44970752 -61.70709029 45.50262094 -62.0625 33.25 C-62.06713877 22.22480189 -57.64413021 13.38914423 -50.375 5.125 C-35.27031415 -7.6212349 -17.57454838 -9.76363799 0 0 Z " fill="#FDFEFF" transform="translate(386.375,590.875)"/>
<path d="M0 0 C8.74726492 6.65984943 14.87533499 15.88125953 16.625 26.8125 C17.43873011 39.30231095 14.70025559 49.11211221 7.8125 59.5625 C2.9274812 64.58709077 -3.53979193 69.83424617 -10.375 71.8125 C-15.30363765 71.5382106 -19.10862318 68.82198936 -23.25 66.375 C-31.46795755 61.6451223 -39.92957463 57.7881996 -48.66943359 54.12524414 C-59.07316544 49.75596511 -59.07316544 49.75596511 -61.375 47.8125 C-64.88314414 39.09529335 -64.74998728 27.81353424 -61.8125 18.875 C-57.08267881 7.78323622 -48.43513362 -0.58648441 -37.375 -5.1875 C-24.88971276 -9.98953356 -10.99490707 -7.16334855 0 0 Z " fill="#FDFDFF" transform="translate(548.375,327.1875)"/>
</svg>
